ExternalForces									
version=1									
nRows=217									
nColumns=10									
inDegrees=yes									
endheader									
time	chair_force_vx	chair_force_vy	chair_force_vz	chair_force_px	chair_force_py	chair_force_pz	chair_torque_x	chair_torque_y	chair_torque_z
0	-3.38873031	246.9485679	0	0	0	0	0	0	0
0.006422	4.34728344	236.3328461	0	0	0	0	0	0	0
0.00734948	-0.87401385	246.298526	0	0	0	0	0	0	0
0.00912853	-0.21893922	246.8806569	0	0	0	0	0	0	0
0.01642385	5.25977709	246.8862419	0	0	0	0	0	0	0
0.02371917	13.28591512	245.2233293	0	0	0	0	0	0	0
0.03702336	27.51412391	244.6466143	0	0	0	0	0	0	0
0.04988973	40.37481002	239.3067747	0	0	0	0	0	0	0
0.05117636	44.36967271	239.3990944	0	0	0	0	0	0	0
0.05406514	48.53249927	239.0887239	0	0	0	0	0	0	0
0.06403051	67.79581665	237.6738756	0	0	0	0	0	0	0
0.06535842	64.8163508	237.0302497	0	0	0	0	0	0	0
0.06851386	66.53790085	236.1544642	0	0	0	0	0	0	0
0.07538535	73.89913021	234.4780207	0	0	0	0	0	0	0
0.08504246	97.1012822	233.0517628	0	0	0	0	0	0	0
0.08600823	92.23425769	232.3512008	0	0	0	0	0	0	0
0.08786487	90.88844936	231.6204681	0	0	0	0	0	0	0
0.09192169	94.28252666	230.5032025	0	0	0	0	0	0	0
0.09990777	103.0984542	228.4216624	0	0	0	0	0	0	0
0.10871371	117.1966558	226.3915441	0	0	0	0	0	0	0
0.11028006	115.3957613	225.8184149	0	0	0	0	0	0	0
0.11459869	116.903042	225.0308274	0	0	0	0	0	0	0
0.12219143	121.0565624	224.671653	0	0	0	0	0	0	0
0.13211154	132.5513966	225.7998579	0	0	0	0	0	0	0
0.13348688	128.8175291	225.6086275	0	0	0	0	0	0	0
0.13683554	127.9477261	225.8042787	0	0	0	0	0	0	0
0.14416726	129.1767279	226.5723302	0	0	0	0	0	0	0
0.15118105	137.80832	227.8867599	0	0	0	0	0	0	0
0.15268948	134.4508605	227.7829697	0	0	0	0	0	0	0
0.15646678	133.4811276	228.0610428	0	0	0	0	0	0	0
0.16401696	134.2543809	228.7598873	0	0	0	0	0	0	0
0.1702039	140.0793206	229.6194413	0	0	0	0	0	0	0
0.17401506	137.4384121	229.6809263	0	0	0	0	0	0	0
0.18011627	137.6375544	230.0279702	0	0	0	0	0	0	0
0.18792428	149.2858663	231.0797231	0	0	0	0	0	0	0
0.18913402	143.1840242	230.7292272	0	0	0	0	0	0	0
0.19173576	140.7337677	230.6434592	0	0	0	0	0	0	0
0.19895511	133.7627699	230.3549013	0	0	0	0	0	0	0
0.19977337	139.7144575	230.7093189	0	0	0	0	0	0	0
0.20128724	140.7945817	230.773616	0	0	0	0	0	0	0
0.20571078	141.7288197	230.735541	0	0	0	0	0	0	0
0.21397983	129.0428751	229.716081	0	0	0	0	0	0	0
0.2148839	141.0862469	230.2840044	0	0	0	0	0	0	0
0.21608756	141.289927	230.2281455	0	0	0	0	0	0	0
0.22210584	143.1843918	229.9665848	0	0	0	0	0	0	0
0.22591816	140.7755389	229.6207853	0	0	0	0	0	0	0
0.23328214	135.9333031	228.970721	0	0	0	0	0	0	0
0.23410942	138.8088171	229.0364734	0	0	0	0	0	0	0
0.23603122	139.2153458	228.9356068	0	0	0	0	0	0	0
0.24096948	138.9422864	228.6235339	0	0	0	0	0	0	0
0.24665509	134.1567527	228.1165732	0	0	0	0	0	0	0
0.24812821	137.5969651	228.1337099	0	0	0	0	0	0	0
0.25054517	136.7050495	227.955307	0	0	0	0	0	0	0
0.25873439	130.2969536	227.2815933	0	0	0	0	0	0	0
0.25962433	134.1964203	227.3110856	0	0	0	0	0	0	0
0.2612947	134.2952464	227.2042888	0	0	0	0	0	0	0
0.26645194	134.7168677	226.8627387	0	0	0	0	0	0	0
0.27021125	132.1118396	226.5587999	0	0	0	0	0	0	0
0.27677253	147.2785611	226.1856582	0	0	0	0	0	0	0
0.27759296	136.9806226	226.0368241	0	0	0	0	0	0	0
0.27870611	132.954563	225.9188809	0	0	0	0	0	0	0
0.28242078	129.1649358	225.6056361	0	0	0	0	0	0	0
0.28877885	128.0670461	225.0812283	0	0	0	0	0	0	0
0.29103859	126.8969991	224.8907784	0	0	0	0	0	0	0
0.29772407	124.3105434	224.3085022	0	0	0	0	0	0	0
0.29967592	124.8983646	224.1150628	0	0	0	0	0	0	0
0.3035978	122.3496241	223.639949	0	0	0	0	0	0	0
0.30718986	130.8749351	222.7697023	0	0	0	0	0	0	0
0.30887113	123.8291594	222.551883	0	0	0	0	0	0	0
0.31204414	120.4154234	221.8244315	0	0	0	0	0	0	0
0.31868956	124.5573943	219.1486508	0	0	0	0	0	0	0
0.31979961	120.5635553	218.723468	0	0	0	0	0	0	0
0.32383865	115.9661983	216.5070906	0	0	0	0	0	0	0
0.32698256	122.9490825	213.9888176	0	0	0	0	0	0	0
0.33012647	106.8149389	212.3379614	0	0	0	0	0	0	0
0.3310858	116.5667197	211.0592589	0	0	0	0	0	0	0
0.33230573	115.6037768	210.0862143	0	0	0	0	0	0	0
0.33650524	107.9189654	206.8284692	0	0	0	0	0	0	0
0.33741645	114.6688009	205.5944578	0	0	0	0	0	0	0
0.33874387	114.2984221	204.3807216	0	0	0	0	0	0	0
0.34538097	105.3180997	198.5646764	0	0	0	0	0	0	0
0.34612712	112.2897782	197.3243956	0	0	0	0	0	0	0
0.34743738	112.9482731	195.9573788	0	0	0	0	0	0	0
0.35064273	112.1877984	192.743847	0	0	0	0	0	0	0
0.35421948	118.5554832	188.5014427	0	0	0	0	0	0	0
0.35621022	112.8416815	186.8824001	0	0	0	0	0	0	0
0.35971534	108.9805982	183.5181081	0	0	0	0	0	0	0
0.36126661	111.7824141	181.5610299	0	0	0	0	0	0	0
0.36363031	109.7611622	178.945184	0	0	0	0	0	0	0
0.36811791	121.0526494	172.0004357	0	0	0	0	0	0	0
0.36895696	112.1880569	171.8020755	0	0	0	0	0	0	0
0.3709915	107.6604067	169.5362303	0	0	0	0	0	0	0
0.37443201	100.2225447	165.414418	0	0	0	0	0	0	0
0.37546216	105.2644162	163.2985763	0	0	0	0	0	0	0
0.37689178	103.4930487	161.3453104	0	0	0	0	0	0	0
0.38089617	94.65452281	156.3046221	0	0	0	0	0	0	0
0.38142359	99.00256894	154.9506876	0	0	0	0	0	0	0
0.38294096	100.3594614	152.4410858	0	0	0	0	0	0	0
0.38539483	97.53233604	149.0282104	0	0	0	0	0	0	0
0.38921663	108.3202189	141.6615026	0	0	0	0	0	0	0
0.3900097	99.05385109	141.7275888	0	0	0	0	0	0	0
0.39183849	94.31112784	139.6046779	0	0	0	0	0	0	0
0.39500271	88.55844966	135.6647072	0	0	0	0	0	0	0
0.39617651	91.52820471	133.4579181	0	0	0	0	0	0	0
0.39793503	89.40594477	131.1499646	0	0	0	0	0	0	0
0.40330135	82.24470837	124.1375923	0	0	0	0	0	0	0
0.40393778	83.82121461	122.8465774	0	0	0	0	0	0	0
0.40573966	82.24821125	120.0852895	0	0	0	0	0	0	0
0.41120546	74.89778291	111.3426788	0	0	0	0	0	0	0
0.41967433	61.99324794	96.26019915	0	0	0	0	0	0	0
0.43085412	44.66523992	74.89547681	0	0	0	0	0	0	0
0.44783294	20.84957289	42.50154831	0	0	0	0	0	0	0
0.48510955	0	0	0	0	0	0	0	0	0
0.49122402	0	0	0	0	0	0	0	0	0
0.49951949	0	0	0	0	0	0	0	0	0
0.50757031	0	0	0	0	0	0	0	0	0
0.51470785	0	0	0	0	0	0	0	0	0
0.52184539	0	0	0	0	0	0	0	0	0
0.52802713	0	0	0	0	0	0	0	0	0
0.53420887	0	0	0	0	0	0	0	0	0
0.5403906	0	0	0	0	0	0	0	0	0
0.54964857	0	0	0	0	0	0	0	0	0
0.55689242	0	0	0	0	0	0	0	0	0
0.56413627	0	0	0	0	0	0	0	0	0
0.57039683	0	0	0	0	0	0	0	0	0
0.57665739	0	0	0	0	0	0	0	0	0
0.58291795	0	0	0	0	0	0	0	0	0
0.59166217	0	0	0	0	0	0	0	0	0
0.5988046	0	0	0	0	0	0	0	0	0
0.60594704	0	0	0	0	0	0	0	0	0
0.61205558	0	0	0	0	0	0	0	0	0
0.61816411	0	0	0	0	0	0	0	0	0
0.62427264	0	0	0	0	0	0	0	0	0
0.63323784	0	0	0	0	0	0	0	0	0
0.64026061	0	0	0	0	0	0	0	0	0
0.64728338	0	0	0	0	0	0	0	0	0
0.65352762	0	0	0	0	0	0	0	0	0
0.65977185	0	0	0	0	0	0	0	0	0
0.66601609	0	0	0	0	0	0	0	0	0
0.6739644	0	0	0	0	0	0	0	0	0
0.68109924	0	0	0	0	0	0	0	0	0
0.68735642	0	0	0	0	0	0	0	0	0
0.69361359	0	0	0	0	0	0	0	0	0
0.70132158	0	0	0	0	0	0	0	0	0
0.70902957	0	0	0	0	0	0	0	0	0
0.7138855	0	0	0	0	0	0	0	0	0
0.71874144	0	0	0	0	0	0	0	0	0
0.73066377	0	0	0	0	0	0	0	0	0
0.73779448	0	0	0	0	0	0	0	0	0
0.74492519	0	0	0	0	0	0	0	0	0
0.75286221	0	0	0	0	0	0	0	0	0
0.76079923	0	0	0	0	0	0	0	0	0
0.76873625	0	0	0	0	0	0	0	0	0
0.77544038	0	0	0	0	0	0	0	0	0
0.78214451	0	0	0	0	0	0	0	0	0
0.79023926	0	0	0	0	0	0	0	0	0
0.79696845	0	0	0	0	0	0	0	0	0
0.80369764	0	0	0	0	0	0	0	0	0
0.81042683	0	0	0	0	0	0	0	0	0
0.81727909	0	0	0	0	0	0	0	0	0
0.82413136	0	0	0	0	0	0	0	0	0
0.83265502	0	0	0	0	0	0	0	0	0
0.84117867	0	0	0	0	0	0	0	0	0
0.84818949	0	0	0	0	0	0	0	0	0
0.85520031	0	0	0	0	0	0	0	0	0
0.86221113	0	0	0	0	0	0	0	0	0
0.86922194	0	0	0	0	0	0	0	0	0
0.87451557	0	0	0	0	0	0	0	0	0
0.8798092	0	0	0	0	0	0	0	0	0
0.88736019	0	0	0	0	0	0	0	0	0
0.89605389	0	0	0	0	0	0	0	0	0
0.90254407	0	0	0	0	0	0	0	0	0
0.90903424	0	0	0	0	0	0	0	0	0
0.91552441	0	0	0	0	0	0	0	0	0
0.92356091	0	0	0	0	0	0	0	0	0
0.93023791	0	0	0	0	0	0	0	0	0
0.93691491	0	0	0	0	0	0	0	0	0
0.94359191	0	0	0	0	0	0	0	0	0
0.95205965	0	0	0	0	0	0	0	0	0
0.95940347	0	0	0	0	0	0	0	0	0
0.9667473	0	0	0	0	0	0	0	0	0
0.97409113	0	0	0	0	0	0	0	0	0
0.98143495	0	0	0	0	0	0	0	0	0
0.98877878	0	0	0	0	0	0	0	0	0
0.99799382	0	0	0	0	0	0	0	0	0
1.00505061	0	0	0	0	0	0	0	0	0
1.0121074	0	0	0	0	0	0	0	0	0
1.01916419	0	0	0	0	0	0	0	0	0
1.02931033	0	0	0	0	0	0	0	0	0
1.0361141	0	0	0	0	0	0	0	0	0
1.04291786	0	0	0	0	0	0	0	0	0
1.05133067	0	0	0	0	0	0	0	0	0
1.05910133	0	0	0	0	0	0	0	0	0
1.06687199	0	0	0	0	0	0	0	0	0
1.07464265	0	0	0	0	0	0	0	0	0
1.08241331	0	0	0	0	0	0	0	0	0
1.08909281	0	0	0	0	0	0	0	0	0
1.09577231	0	0	0	0	0	0	0	0	0
1.10468242	0	0	0	0	0	0	0	0	0
1.1120595	0	0	0	0	0	0	0	0	0
1.11943657	0	0	0	0	0	0	0	0	0
1.12681365	0	0	0	0	0	0	0	0	0
1.13419073	0	0	0	0	0	0	0	0	0
1.1415678	0	0	0	0	0	0	0	0	0
1.15063158	0	0	0	0	0	0	0	0	0
1.15969536	0	0	0	0	0	0	0	0	0
1.16727006	0	0	0	0	0	0	0	0	0
1.17484477	0	0	0	0	0	0	0	0	0
1.18913787	0	0	0	0	0	0	0	0	0
1.19881094	0	0	0	0	0	0	0	0	0
1.20246467	0	0	0	0	0	0	0	0	0
1.2061184	0	0	0	0	0	0	0	0	0
1.21107081	0	0	0	0	0	0	0	0	0
1.21547063	0	0	0	0	0	0	0	0	0
1.22096408	0	0	0	0	0	0	0	0	0
1.2245464	0	0	0	0	0	0	0	0	0
1.22763988	0	0	0	0	0	0	0	0	0
